<?xml version="1.0" encoding="utf-8"?>
<!-- Generator: Adobe Illustrator 27.0.1, SVG Export Plug-In . SVG Version: 6.00 Build 0)  -->
<svg version="1.1" id="Layer_1" xmlns="http://www.w3.org/2000/svg" xmlns:xlink="http://www.w3.org/1999/xlink" x="0px" y="0px"
	 viewBox="0 0 448 512" style="enable-background:new 0 0 448 512;" xml:space="preserve">
<style type="text/css">
	.st0{fill:#A1D537;}
	.st1{fill:none;stroke:#A1D537;stroke-miterlimit:10;}
</style>
<path class="st0" d="M224,175c27.6,0,50-22.4,50-50s-22.4-50-50-50s-50,22.4-50,50S196.4,175,224,175z M206.1,193.8
	c-38.5,0-57.5,47.6-57.5,47.6c16.1,16.1,28.3,22,53.1,29.6l22.2,1.8c1.1,0.1,2.1,0,3.2-0.1c13.3-0.8,40.7-3.4,70.9-29.6
	c0,0-17.7-49.3-56.2-49.3H206.1z"/>
<circle class="st1" cx="223.9" cy="166.9" r="105.9"/>
</svg>
